<svg xmlns="http://www.w3.org/2000/svg" width="268.028" height="93.274" viewBox="0 0 268.028 93.274"><g transform="translate(-262.386 -19.828)"><g transform="translate(262.386 19.828)"><g transform="translate(0)"><path d="M90.63,202.969a12.966,12.966,0,0,1,19.154-11.395,40.131,40.131,0,0,1,20.983,35.282h0a40.131,40.131,0,0,1-20.983,35.282A12.966,12.966,0,0,1,90.63,250.743Z" transform="translate(-90.63 -189.982)" fill="#fcd307"/></g><g transform="translate(20.069 22.342)"><path d="M297.669,407.32c-8.543,13.012-17.4-6.427-32.347-2.083-17.6,5.115-23.316-15.84-14.773-28.852a28.184,28.184,0,1,1,47.12,30.935Z" transform="translate(-246.644 -363.666)" fill="#0071f8"/></g><g transform="translate(29.652 66.183)"><circle cx="13.546" cy="13.546" r="13.546" fill="#00c26c"/></g></g><g transform="translate(352.017 60.592)"><path d="M760.551,335.982a.8.8,0,0,1,.193-.562.7.7,0,0,1,.545-.21h11.152a7,7,0,0,1,2.788.562,7.269,7.269,0,0,1,2.292,1.545,7.346,7.346,0,0,1,1.554,2.3,7.043,7.043,0,0,1,.571,2.83,6.773,6.773,0,0,1-.395,2.342,6.385,6.385,0,0,1-1.117,1.94,8.172,8.172,0,0,1,1.914,2.637,7.635,7.635,0,0,1,.7,3.242,7.256,7.256,0,0,1-.588,2.9,7.9,7.9,0,0,1-1.587,2.4,7.549,7.549,0,0,1-2.335,1.638,6.75,6.75,0,0,1-2.813.6H761.29a.792.792,0,0,1-.538-.176.685.685,0,0,1-.2-.545V335.982ZM773.2,342.6a2.381,2.381,0,0,0-.185-.94,2.406,2.406,0,0,0-1.33-1.3,2.686,2.686,0,0,0-1.027-.193h-3.6v4.87H770.6a3.041,3.041,0,0,0,1.052-.176,2.275,2.275,0,0,0,.817-.5,2.384,2.384,0,0,0,.53-.773A2.433,2.433,0,0,0,773.2,342.6Zm.89,9.757a2.771,2.771,0,0,0-.194-1.007,2.951,2.951,0,0,0-.539-.9,2.87,2.87,0,0,0-.825-.647,2.189,2.189,0,0,0-1.036-.252H767.05v5.609h4.444a2.263,2.263,0,0,0,1.027-.235,2.736,2.736,0,0,0,.825-.63,2.936,2.936,0,0,0,.742-1.939Z" transform="translate(-760.55 -334.839)" fill="#383838"/><path d="M971.4,335.94a.778.778,0,0,1,.185-.521.686.686,0,0,1,.555-.219h4.937a.941.941,0,0,1,.538.2.627.627,0,0,1,.286.538V359.4q0,.739-.823.738H972.14a.652.652,0,0,1-.739-.738V335.94Z" transform="translate(-944.276 -334.83)" fill="#383838"/><path d="M1063.83,335.947a.686.686,0,0,1,.226-.536.816.816,0,0,1,.562-.2h18.071a.851.851,0,0,1,.538.184.756.756,0,0,1,.269.553v4.169a.939.939,0,0,1-.21.578.705.705,0,0,1-.6.277H1076.9v18.389a.806.806,0,0,1-.217.547.725.725,0,0,1-.57.244h-4.924a.791.791,0,0,1-.536-.226.729.729,0,0,1-.251-.563V340.97h-5.777a.777.777,0,0,1-.562-.217.84.84,0,0,1-.226-.637v-4.169Z" transform="translate(-1024.817 -334.839)" fill="#383838"/><path d="M756.12,599.42a.738.738,0,0,1,.2-.521.717.717,0,0,1,.555-.219h4.971a.78.78,0,0,1,.521.2.724.724,0,0,1,.252.538v18.272h9.236a.738.738,0,0,1,.521.2.717.717,0,0,1,.219.554v4.416a.8.8,0,0,1-.193.521.715.715,0,0,1-.545.252h-15a.652.652,0,0,1-.738-.738Z" transform="translate(-689.657 -598.329)" fill="#383838"/><path d="M910.3,608.814a12.765,12.765,0,0,1,1.748-6.491,13.007,13.007,0,0,1,2.008-2.611,12.543,12.543,0,0,1,2.6-2.007,13.14,13.14,0,0,1,3.067-1.293,12.863,12.863,0,0,1,6.832,0,13.116,13.116,0,0,1,3.076,1.293,12.767,12.767,0,0,1,2.6,2.007,12.636,12.636,0,0,1,2.008,2.611,13.367,13.367,0,0,1,1.294,3.073,12.883,12.883,0,0,1,0,6.836,13.009,13.009,0,0,1-1.294,3.056,12.581,12.581,0,0,1-2.008,2.586,13.139,13.139,0,0,1-2.6,2.007,12.861,12.861,0,0,1-12.974,0,13.02,13.02,0,0,1-4.6-4.592,12.51,12.51,0,0,1-1.294-3.056A12.749,12.749,0,0,1,910.3,608.814Zm6.5-.017a7.145,7.145,0,0,0,.469,2.6,6.41,6.41,0,0,0,1.317,2.107,6.137,6.137,0,0,0,2,1.411,6.217,6.217,0,0,0,2.55.512,6.3,6.3,0,0,0,2.557-.512,6.1,6.1,0,0,0,2.013-1.411,6.429,6.429,0,0,0,1.316-2.107,7.428,7.428,0,0,0,0-5.2,6.491,6.491,0,0,0-1.316-2.124,6.257,6.257,0,0,0-9.124,0,6.532,6.532,0,0,0-1.317,2.124A7.156,7.156,0,0,0,916.8,608.8Z" transform="translate(-824.004 -595.95)" fill="#383838"/><path d="M1162.057,603.373a7.28,7.28,0,0,0-1.83-.94,6.347,6.347,0,0,0-2.083-.336,6.06,6.06,0,0,0-4.542,1.964,6.677,6.677,0,0,0-1.3,2.124,7.365,7.365,0,0,0,0,5.181,6.57,6.57,0,0,0,1.3,2.107,6.067,6.067,0,0,0,1.99,1.419,6.154,6.154,0,0,0,2.552.521,8.217,8.217,0,0,0,1.167-.084q.579-.083,1.235-.219v-4.4a.77.77,0,0,1,.185-.529.7.7,0,0,1,.554-.21h4.568a.942.942,0,0,1,.538.2.626.626,0,0,1,.286.538v8.129a.844.844,0,0,1-.488.74,9.185,9.185,0,0,1-1.747.924,14.293,14.293,0,0,1-2,.638,18.262,18.262,0,0,1-2.107.378,17.76,17.76,0,0,1-2.074.126,12.706,12.706,0,0,1-6.483-1.746,13.011,13.011,0,0,1-4.6-4.592,12.552,12.552,0,0,1-1.293-3.057,12.885,12.885,0,0,1,1.293-9.909,13,13,0,0,1,2.007-2.611,12.541,12.541,0,0,1,2.595-2.007,13.135,13.135,0,0,1,3.065-1.293,13.02,13.02,0,0,1,7.222.1,13.107,13.107,0,0,1,3.368,1.621,1.142,1.142,0,0,1,.436.445.6.6,0,0,1-.067.63l-2.721,3.93a1.193,1.193,0,0,1-.436.361A.68.68,0,0,1,1162.057,603.373Z" transform="translate(-1028.887 -595.967)" fill="#383838"/><path d="M1359.4,599.55a.778.778,0,0,1,.185-.521.686.686,0,0,1,.554-.219h4.937a.942.942,0,0,1,.538.2.627.627,0,0,1,.286.538v23.461q0,.739-.823.738h-4.937a.652.652,0,0,1-.738-.738V599.55Z" transform="translate(-1215.333 -598.442)" fill="#383838"/><path d="M1443.245,623.2c.09-.168.181-.338.277-.512a6.062,6.062,0,0,1,.328-.529l7.557-11.285q-1.931-2.906-3.821-5.744t-3.82-5.744a1.661,1.661,0,0,1-.16-.252.765.765,0,0,1-.076-.252.164.164,0,0,1,.193-.126.653.653,0,0,0,.328-.076h5.844a1.077,1.077,0,0,1,.974.638l4.115,6.18,4.165-6.18a1.077,1.077,0,0,1,.974-.638h5.592c.123,0,.238,0,.345.009a.8.8,0,0,1,.277.059.162.162,0,0,1,.117.151.724.724,0,0,1-.185.436l-7.725,11.538,7.877,11.756a2.967,2.967,0,0,1,.26.428.615.615,0,0,1,.076.328c0,.169-.1.252-.3.252h-6.013a.868.868,0,0,1-.521-.169,1.129,1.129,0,0,1-.369-.453l-4.568-6.768-4.518,6.768a1.131,1.131,0,0,1-.369.453.878.878,0,0,1-.521.169h-6.029a.382.382,0,0,1-.235-.076.247.247,0,0,1-.1-.21A.347.347,0,0,1,1443.245,623.2Z" transform="translate(-1288.362 -598.329)" fill="#383838"/></g></g></svg>